<svg id="Capa_1" data-name="Capa 1" xmlns="http://www.w3.org/2000/svg" viewBox="0 0 486.71 187.09"><defs><style>.cls-1{fill:#ffedb3;}</style></defs><title>el patio</title><path class="cls-1" d="M80.75,124.71q7,0,10.41,3.36t3.45,9.33a17.18,17.18,0,0,1-1.85,7.39,25.65,25.65,0,0,1-6.38,7.85,68.16,68.16,0,0,1-12.14,8.15,143.43,143.43,0,0,1-19,8.36,5.48,5.48,0,0,0,2.6,3.82,10.66,10.66,0,0,0,5.8,1.39,33.16,33.16,0,0,0,8.28-1.14,67.58,67.58,0,0,0,8.73-2.89q4.32-1.77,8.44-3.83c2.75-1.37,5.22-2.67,7.44-3.9s4.06-2.3,5.54-3.2,2.48-1.45,3-1.68a3.39,3.39,0,0,1,1.39-.58,8.11,8.11,0,0,1,1.13-.09,2.92,2.92,0,0,1,1.68.46,4.78,4.78,0,0,1,1.14,1.1A3.82,3.82,0,0,1,111,160a5.61,5.61,0,0,1,.17,1.22A12.17,12.17,0,0,1,111,163a5.39,5.39,0,0,1-1.26,2.39c-.28.28-1.22,1-2.82,2.27s-3.65,2.69-6.17,4.36-5.45,3.46-8.78,5.34a100.79,100.79,0,0,1-10.58,5.16,82.42,82.42,0,0,1-11.64,3.91A47.63,47.63,0,0,1,57.81,188,19.86,19.86,0,0,1,48.87,186a20.18,20.18,0,0,1-6.64-5.2,23.3,23.3,0,0,1-4.16-7.57,28.24,28.24,0,0,1-1.42-9,25.51,25.51,0,0,1,1.42-7.94,42.24,42.24,0,0,1,4.12-8.7,52.85,52.85,0,0,1,6.6-8.52,48.23,48.23,0,0,1,8.77-7.35,45.64,45.64,0,0,1,10.71-5.13A39.69,39.69,0,0,1,80.75,124.71Zm-3,11.59a4.36,4.36,0,0,0-.75-.08h-.76a14.19,14.19,0,0,0-6,1.26,20.19,20.19,0,0,0-5.09,3.32,25.84,25.84,0,0,0-4.11,4.66c-1.21,1.73-2.28,3.46-3.24,5.17a45.69,45.69,0,0,0-2.39,4.91c-.64,1.57-1.13,2.89-1.47,4Q56.89,158,60,156.05c2.1-1.29,4.08-2.53,5.92-3.7s3.46-2.24,4.83-3.19,2.34-1.6,2.9-1.94a17.51,17.51,0,0,0,5.21-4.41,6.62,6.62,0,0,0,1.43-3.57,2.64,2.64,0,0,0-.8-2A3.4,3.4,0,0,0,77.72,136.3Z" transform="translate(-36.65 -58.13)"/><path class="cls-1" d="M116.28,161.59a43,43,0,0,0-1.81,4.49,14.52,14.52,0,0,0-.88,4.58,3.58,3.58,0,0,0,.51,2,2.16,2.16,0,0,0,1.93.75,12.5,12.5,0,0,0,4.41-1.05,47.42,47.42,0,0,0,5.71-2.77c2-1.15,4.17-2.46,6.39-4s4.4-3,6.59-4.62,4.27-3.19,6.26-4.79,3.76-3.06,5.33-4.41a4,4,0,0,1,1.6-.84,6,6,0,0,1,1.59-.25,3.66,3.66,0,0,1,2.78,1.18,4.42,4.42,0,0,1,1.09,3.11A8.4,8.4,0,0,1,156.6,159a13.21,13.21,0,0,1-4.11,4.29q-5.38,4.95-10.84,9.41a109.11,109.11,0,0,1-10.88,7.85A60.23,60.23,0,0,1,120,186a29.35,29.35,0,0,1-10.38,2,15.49,15.49,0,0,1-5.75-.93,9,9,0,0,1-5.67-6.3,17.78,17.78,0,0,1-.59-4.62,31.14,31.14,0,0,1,1.22-8.44,52.28,52.28,0,0,1,2.9-7.94q2.94-6.56,6-13l5.55-11.84L138.71,80.7a9.42,9.42,0,0,1,4.07-4.63A11.1,11.1,0,0,1,148,74.73a8.4,8.4,0,0,1,4.75,1.43,5.16,5.16,0,0,1,2.14,4.62,8.09,8.09,0,0,1-.72,3.19,35.55,35.55,0,0,1-1.8,3.61c-1.4,2.63-3.07,5.86-5,9.66s-4,8-6.22,12.43-4.48,9.15-6.8,14-4.59,9.56-6.81,14.15-4.28,8.95-6.21,13.07S117.68,158.56,116.28,161.59Z" transform="translate(-36.65 -58.13)"/><path class="cls-1" d="M275.63,146.38a21.13,21.13,0,0,1,2.19-1.09,5,5,0,0,1,1.93-.42,3.12,3.12,0,0,1,2.77,1.39,6,6,0,0,1,.93,3.4,10.14,10.14,0,0,1-4.54,8.23q-9,6.72-16.05,12.27t-13.31,9.53a63.18,63.18,0,0,1-12.22,6.17,36.76,36.76,0,0,1-12.77,2.19q-6.39,0-9.87-2.35a7.4,7.4,0,0,1-3.49-6.47v-.63a3.6,3.6,0,0,1,.09-.72,13.87,13.87,0,0,1,2.6-5.79,67.23,67.23,0,0,1,5.46-6.81q3.19-3.53,6.8-7.14t6.68-6.84a67.81,67.81,0,0,0,5.08-5.92c1.35-1.8,2-3.25,2-4.37a1.84,1.84,0,0,0-.84-1.6,5,5,0,0,0-2.77-.59,18.34,18.34,0,0,0-6.93,1.47,35.9,35.9,0,0,0-7.06,4,60.63,60.63,0,0,0-6.8,5.67,86.13,86.13,0,0,0-6.22,6.64q-2.9,3.44-5.29,6.93c-1.6,2.32-3,4.47-4.07,6.42l-1.43,2.61c-.62,1.12-1.29,2.38-2,3.78s-1.5,2.84-2.31,4.33-1.55,2.88-2.22,4.19l-1.81,3.53c-.53,1-.91,1.75-1.13,2.15s-.75,1.45-1.39,2.85-1.39,3-2.23,4.92-1.72,3.85-2.64,5.92-1.8,4-2.61,5.88-1.52,3.47-2.14,4.87-1,2.35-1.17,2.86a27.84,27.84,0,0,1-2,4.11,16.52,16.52,0,0,1-2.6,3.4,11.8,11.8,0,0,1-3.36,2.36,10,10,0,0,1-4.24.88,9.38,9.38,0,0,1-5-1.22c-1.32-.81-2-2.37-2-4.66a12.43,12.43,0,0,1,.51-3.45,25.48,25.48,0,0,1,1.26-3.48c.5-1.15,1-2.27,1.55-3.36s1-2.14,1.47-3.15q4.54-8.4,9.24-16.84t9-16.72q4.33-8.28,8-16.26a147.74,147.74,0,0,0,6.14-15.28c.44-1,1.06-2.44,1.84-4.29a55.2,55.2,0,0,1,2.69-5.46,23.23,23.23,0,0,1,3.4-4.66,5.58,5.58,0,0,1,4.08-2q3.36,0,4.87,1.3a4.76,4.76,0,0,1,1.51,3.82,10.58,10.58,0,0,1-.17,1.59c-.11.73-.25,1.51-.42,2.31s-.35,1.59-.54,2.31a9.44,9.44,0,0,1-.55,1.6q3.1-2.85,6.72-5.67a67.93,67.93,0,0,1,7.48-5.08,46.3,46.3,0,0,1,7.9-3.7,24,24,0,0,1,8.06-1.43,22.82,22.82,0,0,1,5.5.68,16.86,16.86,0,0,1,4.87,2,11.2,11.2,0,0,1,3.49,3.28A7.89,7.89,0,0,1,257,135.3a15.83,15.83,0,0,1-2.05,7.34,52.23,52.23,0,0,1-5.17,7.86,102.12,102.12,0,0,1-6.72,7.69q-3.61,3.74-6.76,6.8T231,170.2c-1.42,1.43-2.17,2.39-2.22,2.9a2.06,2.06,0,0,0,.75,1.64,4,4,0,0,0,2.52.62,10.79,10.79,0,0,0,4.21-1.34,74.79,74.79,0,0,0,7.76-4.66q5-3.31,12.69-8.91T275.63,146.38Z" transform="translate(-36.65 -58.13)"/><path class="cls-1" d="M360.48,161.67c-1,1-2.36,2.27-4,4s-3.6,3.5-5.76,5.46S346.24,175,343.8,177a76.81,76.81,0,0,1-7.47,5.42,49.56,49.56,0,0,1-7.52,4,18,18,0,0,1-7,1.56,9.73,9.73,0,0,1-5-1.26,11.24,11.24,0,0,1-3.48-3.28,14.59,14.59,0,0,1-2.06-4.58,20.54,20.54,0,0,1-.67-5.25,23.66,23.66,0,0,1,.25-3.48,15.09,15.09,0,0,1,.84-3.24q-2.61,3.52-5.92,7.27a57.94,57.94,0,0,1-7.14,6.8,40.54,40.54,0,0,1-8,5,19.46,19.46,0,0,1-8.44,2,17.77,17.77,0,0,1-5.09-.89,17,17,0,0,1-5.5-2.89,16.85,16.85,0,0,1-4.37-5.21,16.06,16.06,0,0,1-1.76-7.82,39.33,39.33,0,0,1,1-8.23,58.86,58.86,0,0,1,3.19-10,61.31,61.31,0,0,1,5.46-10.21,44.51,44.51,0,0,1,7.86-9,38.37,38.37,0,0,1,10.33-6.47,32.58,32.58,0,0,1,12.93-2.48,20.35,20.35,0,0,1,6.47.93,27.14,27.14,0,0,1,4.71,2,23.42,23.42,0,0,1,3.86,2.93c.95-.5,1.94-1,2.94-1.42a25.2,25.2,0,0,1,2.65-1.05,7.81,7.81,0,0,1,7.6,1.3,5.11,5.11,0,0,1,2,3.86,3.77,3.77,0,0,1-.09.93c-.28,1.06-.71,2.41-1.3,4l-2,5.42q-1.1,3-2.23,6.21c-.76,2.16-1.44,4.27-2.06,6.35s-1.12,4-1.51,5.83a22.91,22.91,0,0,0-.59,4.67,9,9,0,0,0,.84,4.15,3,3,0,0,0,2.86,1.64,7.2,7.2,0,0,0,3-.8,27.84,27.84,0,0,0,3.74-2.14q2-1.34,4.16-3.06t4.16-3.49q4.7-4.2,10-9.58a4.25,4.25,0,0,1,2.6-1.09,3.36,3.36,0,0,1,2.82,1.64,6.31,6.31,0,0,1,1.13,3.65A5.37,5.37,0,0,1,360.48,161.67ZM302.26,140a15.68,15.68,0,0,0-7.64,2,23.37,23.37,0,0,0-6.55,5.29,26.2,26.2,0,0,0-4.54,7.35,21.28,21.28,0,0,0-1.68,8.19,30,30,0,0,0,.21,3.48,9.77,9.77,0,0,0,1,3.32,6.75,6.75,0,0,0,2.14,2.52,6.24,6.24,0,0,0,3.74,1,8.13,8.13,0,0,0,4.32-1.64,36.26,36.26,0,0,0,5.13-4.2,65.83,65.83,0,0,0,5.16-5.63c1.68-2,3.2-4,4.54-6s2.43-3.73,3.28-5.29A8.81,8.81,0,0,0,312.6,147a4.42,4.42,0,0,0-1.1-2.9,10.09,10.09,0,0,0-2.68-2.22,13.36,13.36,0,0,0-3.41-1.39A12.79,12.79,0,0,0,302.26,140Z" transform="translate(-36.65 -58.13)"/><path class="cls-1" d="M376.77,139.16q-3.11,6-5.88,11.8t-5.2,10.63a42.41,42.41,0,0,0-2,4.66,14,14,0,0,0-1,4.66,2.87,2.87,0,0,0,.55,1.85,2.21,2.21,0,0,0,1.81.67,12.83,12.83,0,0,0,4.45-1.05,48.91,48.91,0,0,0,5.8-2.77c2.07-1.15,4.25-2.46,6.55-4s4.55-3,6.76-4.62,4.33-3.19,6.34-4.79,3.81-3.06,5.38-4.41a4.55,4.55,0,0,1,2.52-.92,2.81,2.81,0,0,1,2.35,1.26,5.22,5.22,0,0,1,.92,3.19,9.39,9.39,0,0,1-.92,3.95,11.16,11.16,0,0,1-3.36,4q-5.46,4.95-11.05,9.41a114.59,114.59,0,0,1-11.08,7.85A62.25,62.25,0,0,1,368.88,186a29.73,29.73,0,0,1-10.42,2,15.57,15.57,0,0,1-5.63-.89,8.87,8.87,0,0,1-5.62-6,15.79,15.79,0,0,1-.59-4.42,28.8,28.8,0,0,1,1.43-8.73,58,58,0,0,1,3.19-8.15q2.52-5.2,5-10.33t4.83-9.83h-3.62c-3.13,0-5.29-.51-6.47-1.51a4.48,4.48,0,0,1-1.76-3.45,5.12,5.12,0,0,1,.55-2.05,7.43,7.43,0,0,1,1.59-2.27,9.92,9.92,0,0,1,2.57-1.81,7.6,7.6,0,0,1,3.44-.75h9.07l17.72-35.2A10.82,10.82,0,0,1,388.32,88a10.49,10.49,0,0,1,5.17-1.38,8.36,8.36,0,0,1,4.62,1.34,4.88,4.88,0,0,1,2.1,4.45,8.1,8.1,0,0,1-.71,3.23c-.48,1.1-1.11,2.37-1.89,3.83-.51.95-1.12,2.09-1.85,3.4l-2.31,4.2c-.81,1.48-1.65,3-2.52,4.66s-1.72,3.19-2.56,4.7q-2.87,5.39-6.05,11.35H409.7a29.93,29.93,0,0,1,3.7.21,8.37,8.37,0,0,1,2.9.84,4.7,4.7,0,0,1,1.89,1.72,5.66,5.66,0,0,1,.67,2.94,6.31,6.31,0,0,1-.29,1.85,4.12,4.12,0,0,1-1.1,1.68,6.36,6.36,0,0,1-2.18,1.26,14,14,0,0,1-3.57.67Z" transform="translate(-36.65 -58.13)"/><path class="cls-1" d="M407.1,132.1a9,9,0,0,1,3.28-3.36,7.81,7.81,0,0,1,3.78-1,8,8,0,0,1,5.5,2A6.74,6.74,0,0,1,422,135c-.06.51-.13,1-.21,1.51a4.9,4.9,0,0,1-.55,1.52c-.78,1.46-1.43,2.69-1.93,3.69s-1,2-1.39,2.82-.82,1.72-1.21,2.56l-1.43,3c-.68,1.39-1.43,2.92-2.27,4.57s-1.64,3.35-2.39,5.08a54.35,54.35,0,0,0-1.94,5.13,15.45,15.45,0,0,0-.79,4.62c0,1.51.37,2.51,1.13,3a6,6,0,0,0,3.23.71,13.46,13.46,0,0,0,4.92-1,32.08,32.08,0,0,0,5.16-2.61,46,46,0,0,0,5.13-3.65q2.52-2.06,4.74-4.16t4.12-4q1.89-1.94,3.15-3.45a5,5,0,0,1,3.36-1.59,3,3,0,0,1,2.48,1.34,5.81,5.81,0,0,1,1,3.45,10.24,10.24,0,0,1-1,4.11,12.24,12.24,0,0,1-3.15,4.12q-4.29,4.36-8.74,8.36a76.87,76.87,0,0,1-9.11,7,51.17,51.17,0,0,1-9.37,4.92,25.79,25.79,0,0,1-9.49,1.85q-6.81,0-10.71-3.49T390.8,173.6a26.53,26.53,0,0,1,1.09-7.56,62.62,62.62,0,0,1,2.61-7.18q1.51-3.5,3.19-6.72t2.86-6.18q.42-1.08,1.47-3.36t2.22-4.62C405.14,136.14,406.09,134.17,407.1,132.1Zm9.24-18.9a12.27,12.27,0,0,1,.71-4,11.44,11.44,0,0,1,5.71-6.51,11.2,11.2,0,0,1,5.09-1.09q4.86,0,6.8,1.89a6.35,6.35,0,0,1,1.93,4.75,11.12,11.12,0,0,1-.63,3.52,11.79,11.79,0,0,1-1.89,3.57,10.14,10.14,0,0,1-3.27,2.74,10,10,0,0,1-4.79,1.09q-5.21,0-7.31-1.64A6,6,0,0,1,416.34,113.2Z" transform="translate(-36.65 -58.13)"/><path class="cls-1" d="M473,124.79a30.72,30.72,0,0,1,6.84.85,21,21,0,0,1,6.76,2.85,16.72,16.72,0,0,1,5.17,5.34,15.27,15.27,0,0,1,2.06,8.19,29.3,29.3,0,0,1-.67,5.75,44.06,44.06,0,0,1-2,6.76A4.71,4.71,0,0,0,493,156a6.49,6.49,0,0,0,2.35.42,9.18,9.18,0,0,0,3.91-1,29.59,29.59,0,0,0,4.41-2.6,54.69,54.69,0,0,0,4.54-3.61c1.51-1.35,2.94-2.69,4.28-4s2.56-2.61,3.65-3.82,2-2.23,2.73-3.06a1.93,1.93,0,0,1,1.43-.59,2.62,2.62,0,0,1,2.1,1.22,5.48,5.48,0,0,1,.93,3.4,12.43,12.43,0,0,1-1.31,5,18.67,18.67,0,0,1-4.83,6l-4.62,5a61.18,61.18,0,0,1-5.54,5.38,36.23,36.23,0,0,1-6.13,4.28,13.07,13.07,0,0,1-6.39,1.76,13.81,13.81,0,0,1-4.24-.66,15.17,15.17,0,0,1-4.15-2.19,51.85,51.85,0,0,1-6.89,8.57,42.81,42.81,0,0,1-8.61,6.64,44,44,0,0,1-10.25,4.32A42.82,42.82,0,0,1,448.68,188a19.37,19.37,0,0,1-5.46-.93A18.42,18.42,0,0,1,437.3,184a17.73,17.73,0,0,1-4.75-5.58,16.94,16.94,0,0,1-1.93-8.4,36.32,36.32,0,0,1,1.09-8.06,53.45,53.45,0,0,1,3.32-9.71,61,61,0,0,1,5.63-9.91,43.63,43.63,0,0,1,8.1-8.82,39.4,39.4,0,0,1,10.75-6.3A36.22,36.22,0,0,1,473,124.79Zm-4.37,14.79a15.87,15.87,0,0,0-7.61,2,23.2,23.2,0,0,0-6.46,5.21,26.43,26.43,0,0,0-4.5,7.31,21.74,21.74,0,0,0-1.68,8.36,26.23,26.23,0,0,0,.26,3.48,11,11,0,0,0,1,3.53,7.15,7.15,0,0,0,2.31,2.73,6.71,6.71,0,0,0,4,1.09,15.18,15.18,0,0,0,7.52-2,24.66,24.66,0,0,0,6.51-5.38,26.6,26.6,0,0,0,4.53-7.52,22.68,22.68,0,0,0,1.68-8.48,30.34,30.34,0,0,0-.21-3.49,9.13,9.13,0,0,0-1-3.31,6.46,6.46,0,0,0-2.31-2.48A7.51,7.51,0,0,0,468.59,139.58Z" transform="translate(-36.65 -58.13)"/><rect class="cls-1" y="175.22" width="486.71" height="11.87"/><path class="cls-1" d="M280,230.94" transform="translate(-36.65 -58.13)"/><rect class="cls-1" width="486.71" height="11.87"/></svg>