<svg id="Capa_1" data-name="Capa 1" xmlns="http://www.w3.org/2000/svg" xmlns:xlink="http://www.w3.org/1999/xlink" viewBox="0 0 149.78 126.12"><defs><style>.cls-1{fill:#ffd236;}.cls-2{fill:url(#Degradado_sin_nombre_68);}.cls-3{fill:url(#Degradado_sin_nombre_10);}.cls-4{fill:url(#Degradado_sin_nombre_69);}.cls-5{fill:url(#Degradado_sin_nombre_69-2);}</style><linearGradient id="Degradado_sin_nombre_68" x1="320.42" y1="113.29" x2="361.56" y2="113.29" gradientUnits="userSpaceOnUse"><stop offset="1" stop-color="#acff7f"/><stop offset="1" stop-color="#75ff6a"/></linearGradient><linearGradient id="Degradado_sin_nombre_10" x1="65.31" y1="25.26" x2="84.47" y2="25.26" gradientUnits="userSpaceOnUse"><stop offset="0" stop-color="#a67c52"/><stop offset="1" stop-color="#42210b"/></linearGradient><linearGradient id="Degradado_sin_nombre_69" y1="122.06" x2="149.78" y2="122.06" gradientUnits="userSpaceOnUse"><stop offset="1" stop-color="#ffd236"/><stop offset="1" stop-color="#75ff6a"/></linearGradient><linearGradient id="Degradado_sin_nombre_69-2" y1="62.61" x2="149.78" y2="62.61" xlink:href="#Degradado_sin_nombre_69"/></defs><title>Sin título-1</title><path class="cls-1" d="M206.59,169.06a4.42,4.42,0,0,1,3.21,1,3.82,3.82,0,0,1,1.06,2.87,5.25,5.25,0,0,1-.57,2.27,7.81,7.81,0,0,1-2,2.42,20.63,20.63,0,0,1-3.74,2.51,44.42,44.42,0,0,1-5.85,2.57,1.68,1.68,0,0,0,.8,1.18,3.33,3.33,0,0,0,1.78.42,10.42,10.42,0,0,0,2.55-.34,21.23,21.23,0,0,0,2.69-.9c.88-.36,1.75-.75,2.59-1.17s1.61-.83,2.29-1.21,1.25-.7,1.71-1a10.08,10.08,0,0,1,.92-.51.84.84,0,0,1,.42-.18l.35,0a.94.94,0,0,1,.52.14,1.62,1.62,0,0,1,.35.34,1.09,1.09,0,0,1,.19.41,1.42,1.42,0,0,1,0,.38,2.94,2.94,0,0,1,0,.55,1.57,1.57,0,0,1-.39.74c-.08.08-.37.32-.86.7s-1.13.82-1.9,1.34-1.68,1.06-2.7,1.64a31.78,31.78,0,0,1-3.26,1.59,25.07,25.07,0,0,1-3.58,1.2,14.69,14.69,0,0,1-3.67.48,6,6,0,0,1-4.8-2.19,7.33,7.33,0,0,1-1.28-2.33,8.78,8.78,0,0,1-.44-2.77,7.94,7.94,0,0,1,.44-2.44,13.26,13.26,0,0,1,1.27-2.68,16.51,16.51,0,0,1,2-2.62,14.72,14.72,0,0,1,2.7-2.26,14,14,0,0,1,3.3-1.58A12,12,0,0,1,206.59,169.06Zm-.93,3.56-.23,0h-.23a4.37,4.37,0,0,0-1.84.39,5.68,5.68,0,0,0-1.56,1,8.28,8.28,0,0,0-1.27,1.43q-.56.81-1,1.59a13.89,13.89,0,0,0-.74,1.51c-.2.49-.35.89-.45,1.22.6-.31,1.23-.66,1.87-1.06l1.82-1.14c.57-.36,1.07-.69,1.49-1l.89-.6a5.54,5.54,0,0,0,1.61-1.35,2.06,2.06,0,0,0,.44-1.1.82.82,0,0,0-.25-.62A1,1,0,0,0,205.66,172.62Z" transform="translate(-193.02 -85.01)"/><path class="cls-1" d="M217.53,180.41a14,14,0,0,0-.56,1.38,4.36,4.36,0,0,0-.27,1.41,1.06,1.06,0,0,0,.16.62.67.67,0,0,0,.59.23,4,4,0,0,0,1.36-.32,14.8,14.8,0,0,0,1.76-.86c.63-.35,1.28-.75,2-1.21s1.36-.93,2-1.42,1.32-1,1.93-1.48,1.16-.94,1.64-1.35a1.22,1.22,0,0,1,.49-.26,2,2,0,0,1,.49-.08,1.1,1.1,0,0,1,.85.36,1.33,1.33,0,0,1,.34,1,2.58,2.58,0,0,1-.36,1.21,4.11,4.11,0,0,1-1.27,1.32c-1.1,1-2.21,2-3.33,2.9a32.87,32.87,0,0,1-3.35,2.41,18.36,18.36,0,0,1-3.31,1.67,8.85,8.85,0,0,1-3.19.62,4.76,4.76,0,0,1-1.77-.28A2.79,2.79,0,0,1,212,186.3a5.47,5.47,0,0,1-.18-1.42,9.57,9.57,0,0,1,.38-2.6,15.48,15.48,0,0,1,.89-2.44c.6-1.35,1.21-2.68,1.83-4l1.71-3.65,7.83-16.67a2.91,2.91,0,0,1,1.26-1.42,3.32,3.32,0,0,1,1.59-.42,2.54,2.54,0,0,1,1.46.45,1.57,1.57,0,0,1,.66,1.42,2.65,2.65,0,0,1-.22,1c-.15.34-.34.71-.56,1.11-.43.81-.94,1.8-1.54,3s-1.23,2.45-1.91,3.83-1.38,2.81-2.09,4.3l-2.1,4.36c-.68,1.41-1.32,2.75-1.91,4S218,179.47,217.53,180.41Z" transform="translate(-193.02 -85.01)"/><path class="cls-1" d="M266.57,175.73a6.06,6.06,0,0,1,.67-.34,1.51,1.51,0,0,1,.6-.13,1,1,0,0,1,.85.43,1.82,1.82,0,0,1,.28,1,2.94,2.94,0,0,1-.35,1.37,3,3,0,0,1-1,1.17c-1.85,1.38-3.49,2.63-4.94,3.77s-2.81,2.12-4.1,2.94a20.13,20.13,0,0,1-3.76,1.9,11.5,11.5,0,0,1-3.93.67,5.36,5.36,0,0,1-3-.73,2.28,2.28,0,0,1-1.07-2v-.19a1,1,0,0,1,0-.22,4.19,4.19,0,0,1,.8-1.78,19.28,19.28,0,0,1,1.68-2.1c.65-.72,1.35-1.45,2.09-2.2s1.43-1.44,2.06-2.1a20,20,0,0,0,1.56-1.82,2.48,2.48,0,0,0,.62-1.35.55.55,0,0,0-.26-.49,1.51,1.51,0,0,0-.85-.18,5.59,5.59,0,0,0-2.13.45,10.74,10.74,0,0,0-2.17,1.22,18.62,18.62,0,0,0-2.1,1.74c-.68.66-1.32,1.34-1.91,2s-1.14,1.42-1.63,2.14-.91,1.37-1.25,2c-.11.19-.25.46-.44.81s-.4.73-.62,1.16l-.71,1.33-.69,1.29-.55,1.09c-.17.32-.28.54-.35.66s-.23.45-.43.88-.43.93-.68,1.51l-.82,1.82-.8,1.81-.66,1.5c-.19.43-.31.72-.36.88a8.75,8.75,0,0,1-.61,1.27,5.22,5.22,0,0,1-.8,1,3.71,3.71,0,0,1-1,.73,3.1,3.1,0,0,1-1.31.27,2.9,2.9,0,0,1-1.54-.38,1.55,1.55,0,0,1-.61-1.43,4,4,0,0,1,.16-1.06,7.24,7.24,0,0,1,.39-1.07c.15-.36.31-.7.48-1s.31-.66.45-1q1.4-2.58,2.84-5.18c1-1.73,1.89-3.45,2.78-5.14s1.71-3.37,2.47-5a44.37,44.37,0,0,0,1.89-4.7l.56-1.32a18.69,18.69,0,0,1,.83-1.68,7.22,7.22,0,0,1,1-1.44,1.72,1.72,0,0,1,1.25-.6,2.26,2.26,0,0,1,1.5.4,1.47,1.47,0,0,1,.47,1.17,4.21,4.21,0,0,1,0,.49c0,.23-.08.47-.13.72s-.11.48-.17.71a3.29,3.29,0,0,1-.17.49c.64-.59,1.33-1.17,2.07-1.75a21.64,21.64,0,0,1,2.3-1.56,14.08,14.08,0,0,1,2.43-1.14,7.46,7.46,0,0,1,2.48-.44,6.92,6.92,0,0,1,1.69.21,5.3,5.3,0,0,1,1.5.61,3.45,3.45,0,0,1,1.08,1,2.51,2.51,0,0,1,.41,1.41,4.94,4.94,0,0,1-.63,2.27,17.23,17.23,0,0,1-1.59,2.41q-1,1.22-2.07,2.37c-.74.77-1.44,1.46-2.08,2.09l-1.63,1.6q-.66.66-.69.9a.62.62,0,0,0,.24.5,1.19,1.19,0,0,0,.77.19,3.25,3.25,0,0,0,1.3-.41,22.78,22.78,0,0,0,2.39-1.43c1-.68,2.32-1.6,3.9-2.74S264.26,177.47,266.57,175.73Z" transform="translate(-193.02 -85.01)"/><path class="cls-1" d="M292.68,180.43c-.31.29-.72.7-1.24,1.22s-1.11,1.07-1.77,1.68-1.37,1.21-2.12,1.82a25.27,25.27,0,0,1-2.3,1.67,14.87,14.87,0,0,1-2.32,1.22,5.48,5.48,0,0,1-2.14.48,2.92,2.92,0,0,1-1.55-.39,3.44,3.44,0,0,1-1.08-1,4.75,4.75,0,0,1-.63-1.41,6.32,6.32,0,0,1-.21-1.62,7.59,7.59,0,0,1,.08-1.07,4.59,4.59,0,0,1,.26-1c-.53.73-1.14,1.47-1.82,2.24a18,18,0,0,1-2.2,2.09,12.41,12.41,0,0,1-2.46,1.56,6,6,0,0,1-2.59.6,5.56,5.56,0,0,1-1.57-.27,5.29,5.29,0,0,1-1.69-.89,5.18,5.18,0,0,1-1.35-1.6,5,5,0,0,1-.54-2.41,12.45,12.45,0,0,1,.32-2.53,19.09,19.09,0,0,1,1-3.07,19.57,19.57,0,0,1,1.68-3.14,13.88,13.88,0,0,1,2.41-2.78,12.36,12.36,0,0,1,3.18-2,10.19,10.19,0,0,1,4-.76,6.34,6.34,0,0,1,2,.29,7.86,7.86,0,0,1,1.44.62,6.51,6.51,0,0,1,1.19.9l.91-.44a7.18,7.18,0,0,1,.81-.32,2.56,2.56,0,0,1,.74-.14,2.35,2.35,0,0,1,1.6.54,1.55,1.55,0,0,1,.62,1.19,1.91,1.91,0,0,1,0,.28c-.09.33-.22.75-.4,1.24s-.39,1.06-.61,1.67-.45,1.25-.69,1.91-.44,1.32-.63,2-.35,1.23-.47,1.79a7,7,0,0,0-.18,1.44,2.86,2.86,0,0,0,.26,1.28.92.92,0,0,0,.88.5,2.28,2.28,0,0,0,.92-.24,10.28,10.28,0,0,0,1.15-.66c.41-.28.84-.59,1.28-.95s.86-.71,1.28-1.07c1-.86,2-1.84,3.07-3a1.33,1.33,0,0,1,.81-.33,1,1,0,0,1,.86.5,2,2,0,0,1,.35,1.13A1.64,1.64,0,0,1,292.68,180.43Zm-17.92-6.67a4.89,4.89,0,0,0-2.35.62,7.14,7.14,0,0,0-2,1.63,8,8,0,0,0-1.4,2.26,6.5,6.5,0,0,0-.52,2.52,8,8,0,0,0,.07,1.08,3.09,3.09,0,0,0,.29,1,2.14,2.14,0,0,0,.66.77,1.91,1.91,0,0,0,1.15.31,2.6,2.6,0,0,0,1.34-.5,12.09,12.09,0,0,0,1.57-1.29,20.68,20.68,0,0,0,1.59-1.74c.52-.63,1-1.24,1.4-1.84s.75-1.15,1-1.63a2.81,2.81,0,0,0,.38-1.06,1.39,1.39,0,0,0-.33-.9,3.29,3.29,0,0,0-.83-.68,4.38,4.38,0,0,0-1-.43A4.19,4.19,0,0,0,274.76,173.76Z" transform="translate(-193.02 -85.01)"/><path class="cls-1" d="M297.69,173.5c-.63,1.24-1.24,2.46-1.8,3.63s-1.11,2.28-1.61,3.28a13.44,13.44,0,0,0-.6,1.43,4.21,4.21,0,0,0-.3,1.43.81.81,0,0,0,.17.57.65.65,0,0,0,.55.21,4.06,4.06,0,0,0,1.37-.32,15,15,0,0,0,1.79-.86c.63-.35,1.31-.75,2-1.21s1.4-.93,2.08-1.42,1.33-1,1.95-1.48,1.18-.94,1.66-1.35a1.37,1.37,0,0,1,.77-.29.86.86,0,0,1,.73.39,1.62,1.62,0,0,1,.28,1,2.92,2.92,0,0,1-.28,1.22,3.44,3.44,0,0,1-1,1.21c-1.12,1-2.25,2-3.4,2.9a33.44,33.44,0,0,1-3.41,2.41,18.93,18.93,0,0,1-3.34,1.67,9,9,0,0,1-3.21.62,4.8,4.8,0,0,1-1.73-.27,2.7,2.7,0,0,1-1.73-1.86,4.61,4.61,0,0,1-.19-1.36,9.05,9.05,0,0,1,.44-2.69,17.84,17.84,0,0,1,1-2.5c.51-1.07,1-2.13,1.53-3.18s1-2.06,1.49-3h-1.11a3.14,3.14,0,0,1-2-.46,1.38,1.38,0,0,1-.54-1.06,1.62,1.62,0,0,1,.16-.64,2.49,2.49,0,0,1,.49-.69,3.11,3.11,0,0,1,.79-.56,2.29,2.29,0,0,1,1.06-.23h2.8L300,159.16a3.23,3.23,0,0,1,1.28-1.41,3.17,3.17,0,0,1,1.59-.43,2.61,2.61,0,0,1,1.42.41,1.52,1.52,0,0,1,.65,1.37,2.62,2.62,0,0,1-.22,1c-.15.34-.34.73-.58,1.18l-.57,1c-.23.41-.46.84-.71,1.3l-.78,1.43-.79,1.45c-.58,1.1-1.2,2.26-1.86,3.49h8.43a10.07,10.07,0,0,1,1.14.06,2.58,2.58,0,0,1,.89.26,1.49,1.49,0,0,1,.58.53,1.7,1.7,0,0,1,.21.91,1.87,1.87,0,0,1-.09.56,1.24,1.24,0,0,1-.34.52,1.8,1.8,0,0,1-.67.39,4.25,4.25,0,0,1-1.1.2Z" transform="translate(-193.02 -85.01)"/><path class="cls-1" d="M307,171.33a2.7,2.7,0,0,1,1-1,2.32,2.32,0,0,1,1.16-.31,2.46,2.46,0,0,1,1.69.63,2,2,0,0,1,.71,1.62c0,.15,0,.31-.06.46a1.48,1.48,0,0,1-.17.47c-.24.45-.44.82-.59,1.13s-.3.6-.43.87-.26.53-.38.79-.26.57-.44.93-.43.9-.69,1.41-.51,1-.74,1.56a16.19,16.19,0,0,0-.59,1.58,4.58,4.58,0,0,0-.25,1.42,1,1,0,0,0,.35.92,1.91,1.91,0,0,0,1,.22,4.3,4.3,0,0,0,1.52-.31,11.84,11.84,0,0,0,1.59-.8,14.73,14.73,0,0,0,1.57-1.13c.52-.42,1-.85,1.46-1.28s.88-.84,1.27-1.24.71-.75,1-1.06a1.5,1.5,0,0,1,1-.49.93.93,0,0,1,.77.41,1.84,1.84,0,0,1,.29,1.06,3.27,3.27,0,0,1-.29,1.27,3.75,3.75,0,0,1-1,1.27c-.88.89-1.78,1.75-2.69,2.57a24.06,24.06,0,0,1-2.81,2.17,15.31,15.31,0,0,1-2.88,1.51,7.9,7.9,0,0,1-2.92.57,4.82,4.82,0,0,1-3.3-1.07,4.28,4.28,0,0,1-1.2-3.35,7.9,7.9,0,0,1,.34-2.32,18.91,18.91,0,0,1,.8-2.22c.31-.71.64-1.4,1-2.06a20.74,20.74,0,0,0,.88-1.9c.09-.23.24-.57.45-1s.45-.94.69-1.42S306.72,172,307,171.33Zm2.84-5.82a3.62,3.62,0,0,1,.22-1.22,3.66,3.66,0,0,1,.66-1.15,3.51,3.51,0,0,1,1.1-.86,3.45,3.45,0,0,1,1.56-.33,3,3,0,0,1,2.1.58,2,2,0,0,1,.59,1.46,3.52,3.52,0,0,1-.19,1.09,3.81,3.81,0,0,1-.58,1.09,3.09,3.09,0,0,1-1,.84,3,3,0,0,1-1.48.34,3.81,3.81,0,0,1-2.25-.5A1.84,1.84,0,0,1,309.87,165.51Z" transform="translate(-193.02 -85.01)"/><path class="cls-1" d="M327.29,169.08a9.57,9.57,0,0,1,2.11.26,6.49,6.49,0,0,1,2.08.88,5.09,5.09,0,0,1,1.59,1.64,4.71,4.71,0,0,1,.64,2.52,8.63,8.63,0,0,1-.21,1.77,14.24,14.24,0,0,1-.62,2.08,1.37,1.37,0,0,0,.59.44,2,2,0,0,0,.73.13,2.81,2.81,0,0,0,1.2-.31,8.57,8.57,0,0,0,1.36-.8,16.88,16.88,0,0,0,1.39-1.11c.47-.41.91-.83,1.32-1.24s.79-.81,1.12-1.18.62-.68.84-.94a.62.62,0,0,1,.44-.18.81.81,0,0,1,.65.37,1.7,1.7,0,0,1,.28,1.05,3.78,3.78,0,0,1-.4,1.55,5.68,5.68,0,0,1-1.48,1.84c-.42.44-.89,1-1.42,1.55a22.2,22.2,0,0,1-1.71,1.65,10.73,10.73,0,0,1-1.89,1.32,4,4,0,0,1-2,.54,4.42,4.42,0,0,1-1.31-.2,4.83,4.83,0,0,1-1.28-.68,15.63,15.63,0,0,1-2.12,2.64,13.22,13.22,0,0,1-5.8,3.37,13.18,13.18,0,0,1-3.61.48,6,6,0,0,1-1.68-.28,5.78,5.78,0,0,1-1.82-1,5.57,5.57,0,0,1-1.46-1.71,5.19,5.19,0,0,1-.59-2.59,11.38,11.38,0,0,1,.33-2.48,16.8,16.8,0,0,1,1-3,20,20,0,0,1,1.73-3.05,13.36,13.36,0,0,1,2.5-2.71,12.07,12.07,0,0,1,3.31-1.94A11.16,11.16,0,0,1,327.29,169.08ZM326,173.63a4.81,4.81,0,0,0-2.34.61,7.09,7.09,0,0,0-2,1.6,8.11,8.11,0,0,0-1.38,2.25,6.59,6.59,0,0,0-.52,2.57,8.6,8.6,0,0,0,.08,1.08,3.56,3.56,0,0,0,.32,1.08,2.14,2.14,0,0,0,.71.84,2,2,0,0,0,1.24.34,4.71,4.71,0,0,0,2.32-.63,7.7,7.7,0,0,0,2-1.66,8.2,8.2,0,0,0,1.4-2.31,7,7,0,0,0,.51-2.61,10,10,0,0,0-.06-1.08,3.11,3.11,0,0,0-.31-1,2.07,2.07,0,0,0-.71-.76A2.34,2.34,0,0,0,326,173.63Z" transform="translate(-193.02 -85.01)"/><path class="cls-2" d="M267.87,85s6.63-.44,10.35,4.37c0,0,9.11,9.18,10.2,27,0,0,2.33,24.85-20.55,25.21,0,0-21.72-.63-20.48-25.71C247.39,115.85,251.33,84.87,267.87,85Z" transform="translate(-193.02 -85.01)"/><circle class="cls-3" cx="74.89" cy="25.26" r="9.58"/><rect class="cls-4" y="117.99" width="149.78" height="8.13"/><rect class="cls-5" y="58.55" width="149.78" height="8.13"/></svg>