<svg id="Capa_1" data-name="Capa 1" xmlns="http://www.w3.org/2000/svg" xmlns:xlink="http://www.w3.org/1999/xlink" viewBox="0 0 149.78 142.81"><defs><style>.cls-1{fill:#fff;}.cls-2{fill:url(#Degradado_sin_nombre_68);}.cls-3{fill:url(#Degradado_sin_nombre_10);}</style><linearGradient id="Degradado_sin_nombre_68" x1="361.78" y1="108.92" x2="435.58" y2="108.92" gradientUnits="userSpaceOnUse"><stop offset="1" stop-color="#acff7f"/><stop offset="1" stop-color="#75ff6a"/></linearGradient><linearGradient id="Degradado_sin_nombre_10" x1="57.33" y1="45.31" x2="91.71" y2="45.31" gradientUnits="userSpaceOnUse"><stop offset="0" stop-color="#a67c52"/><stop offset="1" stop-color="#42210b"/></linearGradient></defs><title>Sin título-1</title><path class="cls-1" d="M206.64,169.06a4.44,4.44,0,0,1,3.21,1,3.86,3.86,0,0,1,1.06,2.87,5.25,5.25,0,0,1-.57,2.27,7.86,7.86,0,0,1-2,2.42,20.51,20.51,0,0,1-3.73,2.51,44,44,0,0,1-5.86,2.57,1.71,1.71,0,0,0,.8,1.18,3.36,3.36,0,0,0,1.79.42,10.28,10.28,0,0,0,2.54-.34,20.71,20.71,0,0,0,2.69-.9c.89-.36,1.75-.75,2.6-1.17s1.61-.83,2.29-1.21,1.25-.7,1.7-1,.77-.44.92-.51a.9.9,0,0,1,.43-.18l.35,0a.9.9,0,0,1,.51.14,1.42,1.42,0,0,1,.35.34,1.12,1.12,0,0,1,.2.41,2,2,0,0,1,.05.38,4.13,4.13,0,0,1-.05.55,1.78,1.78,0,0,1-.39.74c-.09.08-.38.32-.87.7s-1.12.82-1.9,1.34-1.67,1.06-2.7,1.64a29.88,29.88,0,0,1-3.26,1.59,24.66,24.66,0,0,1-3.58,1.2,14.63,14.63,0,0,1-3.67.48,6.21,6.21,0,0,1-2.75-.59,6.28,6.28,0,0,1-2-1.6,7.14,7.14,0,0,1-1.28-2.33,8.5,8.5,0,0,1-.44-2.77,7.65,7.65,0,0,1,.44-2.44,12.68,12.68,0,0,1,1.26-2.68,17.12,17.12,0,0,1,2-2.62,15.13,15.13,0,0,1,2.71-2.26,13.71,13.71,0,0,1,3.29-1.58A12.06,12.06,0,0,1,206.64,169.06Zm-.93,3.56-.23,0h-.24a4.36,4.36,0,0,0-1.83.39,5.88,5.88,0,0,0-1.57,1,8.22,8.22,0,0,0-1.26,1.43c-.37.54-.7,1.07-1,1.59a13.73,13.73,0,0,0-.73,1.51c-.2.49-.35.89-.46,1.22.61-.31,1.23-.66,1.88-1.06l1.82-1.14c.57-.36,1.06-.69,1.49-1l.89-.6a5.47,5.47,0,0,0,1.6-1.35,2.06,2.06,0,0,0,.44-1.1.81.81,0,0,0-.24-.62A1.08,1.08,0,0,0,205.71,172.62Z" transform="translate(-193.07 -58.19)"/><path class="cls-1" d="M217.58,180.41a11.91,11.91,0,0,0-.56,1.38,4.36,4.36,0,0,0-.27,1.41,1.14,1.14,0,0,0,.15.62.69.69,0,0,0,.6.23,3.91,3.91,0,0,0,1.35-.32,14.09,14.09,0,0,0,1.76-.86c.63-.35,1.29-.75,2-1.21s1.35-.93,2-1.42,1.31-1,1.92-1.48,1.16-.94,1.64-1.35a1.26,1.26,0,0,1,.5-.26,1.91,1.91,0,0,1,.49-.08,1.11,1.11,0,0,1,.85.36,1.37,1.37,0,0,1,.34,1,2.5,2.5,0,0,1-.37,1.21,4.06,4.06,0,0,1-1.26,1.32c-1.11,1-2.22,2-3.34,2.9a31.8,31.8,0,0,1-3.35,2.41,18.29,18.29,0,0,1-3.3,1.67,8.9,8.9,0,0,1-3.2.62,4.83,4.83,0,0,1-1.77-.28,2.85,2.85,0,0,1-1.13-.78,2.81,2.81,0,0,1-.61-1.16,5.47,5.47,0,0,1-.18-1.42,9.55,9.55,0,0,1,.37-2.6,16.55,16.55,0,0,1,.89-2.44c.61-1.35,1.22-2.68,1.84-4s1.19-2.54,1.7-3.65l7.84-16.67a2.94,2.94,0,0,1,1.25-1.42,3.38,3.38,0,0,1,1.59-.42,2.52,2.52,0,0,1,1.46.45,1.57,1.57,0,0,1,.66,1.42,2.46,2.46,0,0,1-.22,1c-.15.34-.33.71-.55,1.11-.44.81-.95,1.8-1.54,3s-1.23,2.45-1.92,3.83-1.37,2.81-2.09,4.3L221,173.09q-1,2.11-1.92,4C218.52,178.38,218,179.47,217.58,180.41Z" transform="translate(-193.07 -58.19)"/><path class="cls-1" d="M266.61,175.73a7.16,7.16,0,0,1,.68-.34,1.43,1.43,0,0,1,.59-.13.94.94,0,0,1,.85.43,1.82,1.82,0,0,1,.29,1,3.06,3.06,0,0,1-.35,1.37,2.94,2.94,0,0,1-1.05,1.17c-1.84,1.38-3.49,2.63-4.93,3.77s-2.82,2.12-4.1,2.94a20.44,20.44,0,0,1-3.76,1.9,11.59,11.59,0,0,1-3.93.67,5.34,5.34,0,0,1-3-.73,2.25,2.25,0,0,1-1.07-2v-.19c0-.06,0-.13,0-.22a4.31,4.31,0,0,1,.8-1.78,22,22,0,0,1,1.68-2.1c.66-.72,1.36-1.45,2.1-2.2s1.42-1.44,2.05-2.1a22,22,0,0,0,1.57-1.82,2.55,2.55,0,0,0,.62-1.35.57.57,0,0,0-.26-.49,1.53,1.53,0,0,0-.85-.18,5.67,5.67,0,0,0-2.14.45,11,11,0,0,0-2.17,1.22,19.46,19.46,0,0,0-2.09,1.74c-.68.66-1.32,1.34-1.91,2a25.79,25.79,0,0,0-1.63,2.14c-.49.71-.91,1.37-1.26,2l-.44.81c-.19.34-.39.73-.62,1.16s-.46.87-.71,1.33-.48.89-.68,1.29l-.56,1.09c-.16.32-.28.54-.35.66s-.23.45-.42.88-.43.93-.69,1.51-.53,1.18-.81,1.82-.56,1.24-.81,1.81l-.65,1.5c-.19.43-.31.72-.37.88a8.71,8.71,0,0,1-.6,1.27,5.26,5.26,0,0,1-.81,1,3.57,3.57,0,0,1-1,.73,3.05,3.05,0,0,1-1.3.27,2.86,2.86,0,0,1-1.54-.38,1.53,1.53,0,0,1-.61-1.43,3.93,3.93,0,0,1,.15-1.06,10.55,10.55,0,0,1,.39-1.07c.16-.36.32-.7.48-1s.32-.66.45-1q1.4-2.58,2.85-5.18c1-1.73,1.89-3.45,2.78-5.14s1.71-3.37,2.46-5a44.37,44.37,0,0,0,1.89-4.7q.21-.47.57-1.32a16.36,16.36,0,0,1,.83-1.68,7.6,7.6,0,0,1,1-1.44,1.74,1.74,0,0,1,1.26-.6,2.26,2.26,0,0,1,1.5.4,1.47,1.47,0,0,1,.46,1.17,2.75,2.75,0,0,1-.05.49c0,.23-.08.47-.13.72s-.11.48-.17.71a3.51,3.51,0,0,1-.16.49c.63-.59,1.32-1.17,2.06-1.75a22.71,22.71,0,0,1,2.3-1.56,14.53,14.53,0,0,1,2.44-1.14,7.41,7.41,0,0,1,2.48-.44,6.92,6.92,0,0,1,1.69.21,5.3,5.3,0,0,1,1.5.61,3.31,3.31,0,0,1,1.07,1,2.44,2.44,0,0,1,.42,1.41,5,5,0,0,1-.64,2.27,15.62,15.62,0,0,1-1.59,2.41,30.25,30.25,0,0,1-2.07,2.37c-.74.77-1.43,1.46-2.08,2.09l-1.63,1.6a2.45,2.45,0,0,0-.68.9.64.64,0,0,0,.23.5,1.24,1.24,0,0,0,.78.19,3.26,3.26,0,0,0,1.29-.41,20.88,20.88,0,0,0,2.39-1.43c1-.68,2.33-1.6,3.91-2.74S264.31,177.47,266.61,175.73Z" transform="translate(-193.07 -58.19)"/><path class="cls-1" d="M292.72,180.43l-1.24,1.22q-.76.76-1.77,1.68c-.66.6-1.37,1.21-2.12,1.82a24,24,0,0,1-2.3,1.67A14.35,14.35,0,0,1,283,188a5.53,5.53,0,0,1-2.15.48,3,3,0,0,1-1.55-.39,3.3,3.3,0,0,1-1.07-1,4.51,4.51,0,0,1-.63-1.41,6.32,6.32,0,0,1-.21-1.62,7.59,7.59,0,0,1,.08-1.07,4.08,4.08,0,0,1,.26-1c-.54.73-1.15,1.47-1.83,2.24a18,18,0,0,1-2.19,2.09,13,13,0,0,1-2.46,1.56,6.06,6.06,0,0,1-2.6.6,5.44,5.44,0,0,1-1.56-.27,5.34,5.34,0,0,1-1.7-.89,5.15,5.15,0,0,1-1.34-1.6,5,5,0,0,1-.54-2.41,11.78,11.78,0,0,1,.32-2.53,19,19,0,0,1,1-3.07,19.57,19.57,0,0,1,1.68-3.14,13.93,13.93,0,0,1,2.42-2.78,12,12,0,0,1,3.18-2,10.19,10.19,0,0,1,4-.76,6.28,6.28,0,0,1,2,.29,8,8,0,0,1,1.45.62,6.88,6.88,0,0,1,1.19.9c.29-.15.59-.3.9-.44a6.65,6.65,0,0,1,.82-.32,2.5,2.5,0,0,1,.73-.14,2.37,2.37,0,0,1,1.61.54,1.58,1.58,0,0,1,.62,1.19,1,1,0,0,1,0,.28,12.16,12.16,0,0,1-.4,1.24c-.18.5-.38,1.06-.61,1.67s-.45,1.25-.68,1.91-.45,1.32-.64,2-.34,1.23-.46,1.79a7,7,0,0,0-.18,1.44,2.86,2.86,0,0,0,.26,1.28.91.91,0,0,0,.88.5,2.28,2.28,0,0,0,.91-.24,9.46,9.46,0,0,0,1.15-.66c.42-.28.84-.59,1.28-.95s.87-.71,1.28-1.07c1-.86,2-1.84,3.08-3a1.3,1.3,0,0,1,.8-.33,1,1,0,0,1,.87.5,2,2,0,0,1,.35,1.13A1.65,1.65,0,0,1,292.72,180.43Zm-17.91-6.67a4.89,4.89,0,0,0-2.35.62,7.32,7.32,0,0,0-2,1.63,8,8,0,0,0-1.39,2.26,6.5,6.5,0,0,0-.52,2.52,10,10,0,0,0,.06,1.08,3.1,3.1,0,0,0,.3,1,2.14,2.14,0,0,0,.66.77,1.89,1.89,0,0,0,1.15.31,2.57,2.57,0,0,0,1.33-.5,12.14,12.14,0,0,0,1.58-1.29,22.53,22.53,0,0,0,1.59-1.74c.51-.63,1-1.24,1.39-1.84a18.06,18.06,0,0,0,1-1.63,2.71,2.71,0,0,0,.39-1.06,1.35,1.35,0,0,0-.34-.9,3.23,3.23,0,0,0-.82-.68,4.38,4.38,0,0,0-1.05-.43A4.19,4.19,0,0,0,274.81,173.76Z" transform="translate(-193.07 -58.19)"/><path class="cls-1" d="M297.74,173.5c-.64,1.24-1.24,2.46-1.81,3.63s-1.1,2.28-1.6,3.28a13.35,13.35,0,0,0-.61,1.43,4.21,4.21,0,0,0-.3,1.43.86.86,0,0,0,.17.57.68.68,0,0,0,.56.21,4.11,4.11,0,0,0,1.37-.32,15,15,0,0,0,1.78-.86c.64-.35,1.31-.75,2-1.21s1.4-.93,2.08-1.42,1.33-1,2-1.48,1.17-.94,1.65-1.35a1.43,1.43,0,0,1,.78-.29.86.86,0,0,1,.72.39,1.63,1.63,0,0,1,.29,1,2.94,2.94,0,0,1-.29,1.22,3.4,3.4,0,0,1-1,1.21c-1.12,1-2.25,2-3.4,2.9a34.58,34.58,0,0,1-3.41,2.41,19,19,0,0,1-3.35,1.67,9,9,0,0,1-3.21.62,4.87,4.87,0,0,1-1.73-.27,2.83,2.83,0,0,1-1.12-.75,2.75,2.75,0,0,1-.61-1.11,5,5,0,0,1-.18-1.36,9.05,9.05,0,0,1,.44-2.69,17.86,17.86,0,0,1,1-2.5l1.54-3.18c.51-1,1-2.06,1.49-3h-1.12a3.17,3.17,0,0,1-2-.46,1.38,1.38,0,0,1-.54-1.06,1.65,1.65,0,0,1,.17-.64,2.3,2.3,0,0,1,.49-.69,3.11,3.11,0,0,1,.79-.56,2.27,2.27,0,0,1,1.06-.23h2.79L300,159.16a3.35,3.35,0,0,1,1.28-1.41,3.17,3.17,0,0,1,1.59-.43,2.65,2.65,0,0,1,1.43.41,1.51,1.51,0,0,1,.64,1.37,2.45,2.45,0,0,1-.22,1c-.14.34-.34.73-.58,1.18-.15.29-.34.64-.57,1l-.71,1.3c-.25.45-.51.93-.77,1.43l-.79,1.45c-.59,1.1-1.21,2.26-1.86,3.49h8.42a9.82,9.82,0,0,1,1.14.06,2.52,2.52,0,0,1,.89.26,1.42,1.42,0,0,1,.58.53,1.7,1.7,0,0,1,.21.91,1.87,1.87,0,0,1-.09.56,1.15,1.15,0,0,1-.34.52,1.72,1.72,0,0,1-.67.39,4.17,4.17,0,0,1-1.1.2Z" transform="translate(-193.07 -58.19)"/><path class="cls-1" d="M307.07,171.33a2.77,2.77,0,0,1,1-1,2.38,2.38,0,0,1,1.16-.31,2.49,2.49,0,0,1,1.7.63,2.08,2.08,0,0,1,.71,1.62c0,.15,0,.31-.07.46a1.46,1.46,0,0,1-.16.47c-.25.45-.44.82-.6,1.13l-.43.87L310,176l-.44.93c-.21.43-.44.9-.7,1.41s-.5,1-.73,1.56a14.07,14.07,0,0,0-.6,1.58,4.85,4.85,0,0,0-.24,1.42,1,1,0,0,0,.34.92,2,2,0,0,0,1,.22,4.25,4.25,0,0,0,1.51-.31,10.76,10.76,0,0,0,1.59-.8,14.84,14.84,0,0,0,1.58-1.13c.52-.42,1-.85,1.46-1.28s.88-.84,1.27-1.24.71-.75,1-1.06a1.48,1.48,0,0,1,1-.49.91.91,0,0,1,.76.41,1.77,1.77,0,0,1,.3,1.06,3.12,3.12,0,0,1-.3,1.27,3.75,3.75,0,0,1-1,1.27c-.88.89-1.77,1.75-2.69,2.57a23.16,23.16,0,0,1-2.8,2.17,16,16,0,0,1-2.88,1.51,7.94,7.94,0,0,1-2.92.57,4.8,4.8,0,0,1-3.3-1.07,4.28,4.28,0,0,1-1.2-3.35,8.23,8.23,0,0,1,.33-2.32,19,19,0,0,1,.81-2.22c.3-.71.63-1.4,1-2.06s.63-1.3.88-1.9c.08-.23.23-.57.45-1s.44-.94.68-1.42Zm2.85-5.82a3.62,3.62,0,0,1,.22-1.22,3.45,3.45,0,0,1,.65-1.15,3.63,3.63,0,0,1,1.1-.86,3.46,3.46,0,0,1,1.57-.33,2.94,2.94,0,0,1,2.09.58,2,2,0,0,1,.6,1.46,3.82,3.82,0,0,1-.78,2.18,3,3,0,0,1-1,.84,3,3,0,0,1-1.47.34,3.81,3.81,0,0,1-2.25-.5A1.84,1.84,0,0,1,309.92,165.51Z" transform="translate(-193.07 -58.19)"/><path class="cls-1" d="M327.34,169.08a9.64,9.64,0,0,1,2.11.26,6.49,6.49,0,0,1,2.08.88,5.2,5.2,0,0,1,1.59,1.64,4.71,4.71,0,0,1,.63,2.52,8.63,8.63,0,0,1-.21,1.77,12.14,12.14,0,0,1-.62,2.08,1.4,1.4,0,0,0,.6.44,1.88,1.88,0,0,0,.72.13,2.81,2.81,0,0,0,1.2-.31,8.15,8.15,0,0,0,1.36-.8,17,17,0,0,0,1.4-1.11c.46-.41.9-.83,1.32-1.24s.78-.81,1.12-1.18.62-.68.84-.94a.6.6,0,0,1,.44-.18.81.81,0,0,1,.65.37,1.77,1.77,0,0,1,.28,1.05,3.78,3.78,0,0,1-.4,1.55,5.73,5.73,0,0,1-1.49,1.84l-1.42,1.55a19.08,19.08,0,0,1-1.71,1.65,11,11,0,0,1-1.88,1.32,4.07,4.07,0,0,1-2,.54,4.41,4.41,0,0,1-1.3-.2,4.68,4.68,0,0,1-1.28-.68,15.63,15.63,0,0,1-2.12,2.64,13.27,13.27,0,0,1-9.41,3.85,6,6,0,0,1-1.68-.28,5.58,5.58,0,0,1-1.82-1,5.43,5.43,0,0,1-1.46-1.71,5.19,5.19,0,0,1-.6-2.59,10.87,10.87,0,0,1,.34-2.48,16,16,0,0,1,1-3,18.46,18.46,0,0,1,1.73-3.05,13.6,13.6,0,0,1,2.49-2.71,12.22,12.22,0,0,1,3.31-1.94A11.18,11.18,0,0,1,327.34,169.08ZM326,173.63a4.78,4.78,0,0,0-2.34.61,7,7,0,0,0-2,1.6,8.39,8.39,0,0,0-1.39,2.25,6.78,6.78,0,0,0-.52,2.57,8.6,8.6,0,0,0,.08,1.08,3.31,3.31,0,0,0,.33,1.08,2.14,2.14,0,0,0,.71.84,2,2,0,0,0,1.24.34,4.67,4.67,0,0,0,2.31-.63,7.54,7.54,0,0,0,2-1.66,8,8,0,0,0,1.4-2.31,7.06,7.06,0,0,0,.52-2.61,8,8,0,0,0-.07-1.08,2.7,2.7,0,0,0-.31-1,2,2,0,0,0-.71-.76A2.3,2.3,0,0,0,326,173.63Z" transform="translate(-193.07 -58.19)"/><path class="cls-2" d="M267.5,58.21s11.9-.78,18.57,7.85c0,0,16.34,16.47,18.3,48.36,0,0,4.18,44.58-36.87,45.23,0,0-38.95-1.14-36.73-46.13C230.77,113.52,237.83,58,267.5,58.21Z" transform="translate(-193.07 -58.19)"/><circle class="cls-3" cx="74.52" cy="45.31" r="17.19"/></svg>